<svg id="svg" xmlns="http://www.w3.org/2000/svg" viewBox="47.0099983215332 36.689998626708984 451.624267578125 516.67333984375" height="516.67333984375"><rect x="57.01" y="96.69" fill="none" stroke="#3794ff" stroke-width="2" width="427.16" height="45" d="M 57.01 96.69 h 427.16 v 45 h -427.16 Z"></rect><path d="M 127.01,97.53 L 126.67,98.36 L 126.67,101.69 L 126.67,104.19 L 126.67,107.53 L 126.67,111.69 L 127.5,116.69 L 127.5,120.03 L 127.5,123.36 L 128.33,127.53 L 129.17,130.86 L 130,131.69 L 130,134.19 L 130,135.03" fill="none" stroke="#3794ff" stroke-width="2"></path><path d="M 185.34,100.03 L 185,102.53 L 185,104.19 L 185,106.69 L 185,113.36 L 185,116.69 L 185,120.86 L 185,125.03 L 185,128.36 L 185,131.69 L 185,132.53 L 185.83,134.19 L 185.83,135.86 L 185.83,136.69 L 185.83,138.36 L 185.83,139.19" fill="none" stroke="#3794ff" stroke-width="2"></path><path d="M 235.34,100.03 L 235.83,100.86 L 235.83,105.03 L 235.83,108.36 L 235.83,112.53 L 236.67,117.53 L 237.5,121.69 L 238.33,125.86 L 238.33,130.03 L 238.33,133.36 L 238.33,135.86 L 238.33,138.36 L 238.33,139.19 L 238.33,140.03 L 238.33,140.86 L 238.33,142.53 L 239.17,143.36 L 239.17,145.03 L 239.17,145.86" fill="none" stroke="#3794ff" stroke-width="2"></path><path d="M 297.84,93.36 L 297.5,95.86 L 297.5,98.36 L 297.5,101.69 L 297.5,105.86 L 297.5,109.19 L 297.5,110.86 L 297.5,114.19 L 297.5,117.53 L 297.5,120.86 L 296.67,123.36 L 296.67,125.86 L 296.67,127.53 L 296.67,129.19 L 296.67,130.03 L 296.67,130.86 L 296.67,131.69" fill="none" stroke="#3794ff" stroke-width="2"></path><path d="M 347.84,99.19 L 347.5,100.03 L 347.5,101.69 L 347.5,104.19 L 347.5,107.53 L 347.5,111.69 L 347.5,115.03 L 347.5,118.36 L 347.5,123.36 L 347.5,129.19 L 347.5,130.86 L 348.33,132.53 L 348.33,133.36" fill="none" stroke="#3794ff" stroke-width="2"></path><path d="M 417.01,93.36 L 417.5,95.86 L 418.33,98.36 L 418.33,101.69 L 419.17,106.69 L 420,112.53 L 420.83,118.36 L 421.67,124.19 L 422.5,130.03 L 423.33,134.19 L 424.17,139.19 L 425,142.53 L 425,145.03 L 425.83,147.53 L 426.67,148.36 L 426.67,150.03 L 426.67,150.86 L 426.67,151.69 L 427.5,151.69" fill="none" stroke="#3794ff" stroke-width="2"></path><text font-family="inherit" font-size="14" fill="#3794ff" x="131.17" y="61.69">it can grow</text><rect x="152.84" y="214.19" fill="none" stroke="#3794ff" stroke-width="2" width="167.98999999999998" height="263.34" d="M 152.84 214.19 h 167.98999999999998 v 263.34 h -167.98999999999998 Z"></rect><circle cx="369.51" cy="241.69" fill="none" stroke="#3794ff" stroke-width="2" r="13.434202618689342"></circle><circle cx="367.84" cy="228.36" fill="none" stroke="#3794ff" stroke-width="2" d="undefined"></circle><path d="M 394.51,225.86 L 395.83,225.86 L 396.67,225.86 L 398.33,225.86 L 399.17,225.86 L 400,225.86 L 400.83,227.53 L 400.83,230.03 L 400.83,232.53 L 400.83,235.03 L 400.83,239.19 L 400.83,241.69 L 400.83,242.53 L 400.83,244.19 L 400,245.86 L 399.17,246.69 L 399.17,247.53 L 399.17,248.36 L 399.17,249.19 L 398.33,249.19 L 397.5,249.19 L 395,249.19 L 392.5,249.19 L 391.67,249.19 L 390.83,249.19 L 390,249.19 L 389.17,249.19 L 390.83,249.19 L 391.67,249.19 L 393.33,249.19 L 395,249.19 L 396.67,249.19 L 399.17,249.19 L 400,249.19 L 400.83,249.19 L 401.67,249.19 L 402.5,250.03 L 403.33,250.03" fill="none" stroke="#3794ff" stroke-width="2"></path><path d="M 417.01,210.03 L 419.17,213.36 L 417.01,253.36 L 416.17,253.36 L 415.34,253.36 L 414.51,253.36 L 414.51,254.19 L 413.67,254.19 L 412.84,254.19 L 410.34,254.19 L 408.67,254.19 L 405.34,252.53 L 404.51,250.86 L 402.84,248.36 L 402.01,245.86 L 400.34,243.36 L 399.51,241.69 L 398.67,240.86 L 397.84,239.19 L 397.01,237.53 L 396.17,235.86 L 396.17,235.03 L 395.34,232.53 L 394.51,230.86 L 393.67,229.19 L 392.84,228.36 L 392.84,227.53 L 392.01,226.69 L 391.17,226.69 L 390.34,226.69 L 388.67,225.86 L 387.84,225.86 L 386.17,225.03 L 385.34,225.03 L 384.51,225.03 L 386.17,226.69 L 387.01,227.53 L 388.67,228.36 L 391.17,230.03 L 391.17,230.86 L 392.84,231.69 L 394.51,234.19 L 397.84,237.53 L 399.51,239.19 L 400.34,239.19 L 402.01,240.86 L 403.67,244.19 L 407.84,247.53 L 409.51,249.19 L 411.17,250.86 L 412.01,251.69 L 413.67,252.53 L 413.67,253.36 L 415.34,253.36 L 416.17,254.19 L 417.01,254.19 L 417.84,254.19 L 417.84,253.36" fill="none" stroke="#3794ff" stroke-width="2"></path><path d="M 417.84,253.36" fill="none" stroke="#3794ff" stroke-width="2"></path><path d="M 384.51,207.53 L 383.33,210.03 L 383.33,212.53 L 383.33,215.03 L 383.33,217.53 L 383.33,220.03 L 383.33,223.36 L 383.33,225.03 L 383.33,226.69 L 383.33,229.19 L 383.33,231.69 L 385,235.86 L 385.83,237.53 L 386.67,240.03 L 387.5,241.69 L 388.33,243.36 L 389.17,245.03 L 390,245.03 L 390.83,246.69 L 392.5,249.19 L 394.17,250.03 L 395,250.86 L 396.67,251.69 L 398.33,252.53 L 400,252.53 L 400.83,252.53" fill="none" stroke="#3794ff" stroke-width="2"></path><path d="M 392.84,250.86" fill="none" stroke="#3794ff" stroke-width="2"></path><text font-family="inherit" font-size="14" fill="#3794ff" x="82.84" y="540.03">dive deep into: how storage is handled and how vector is handled</text><line x1="217.84" y1="141.69" x2="217.5" y2="213.36" fill="none" stroke="#3794ff" stroke-width="2" d="M 217.84 141.69 L 217.5 213.36"></line><line x1="279.51" y1="143.36" x2="281.67" y2="225.03" fill="none" stroke="#3794ff" stroke-width="2" d="M 279.51 143.36 L 281.67 225.03"></line></svg>